<svg width="24" height="24" viewBox="0 0 24 24" fill="none" xmlns="http://www.w3.org/2000/svg">
<g clip-path="url(#clip0_1492_1210)">
<path fill-rule="evenodd" clip-rule="evenodd" d="M15.9684 17.9405C15.9684 18.4911 15.5179 18.9416 14.9673 18.9416H13.4194C12.8688 18.9416 12.4183 18.4911 12.4183 17.9405C12.4183 17.3899 12.8688 16.9395 13.4194 16.9395H14.9673C15.5178 16.9395 15.9684 17.3899 15.9684 17.9405Z" fill="white"/>
<path fill-rule="evenodd" clip-rule="evenodd" d="M15.9683 17.9404C15.9683 18.491 15.5179 18.9415 14.9673 18.9415H13.4194C13.0237 18.9415 12.6797 18.7089 12.5175 18.3736C12.6487 18.4371 12.7957 18.4728 12.9506 18.4728H14.4984C15.049 18.4728 15.4995 18.0222 15.4995 17.4717C15.4995 17.3168 15.4638 17.1698 15.4003 17.0386C15.7357 17.2008 15.9683 17.5448 15.9683 17.9404Z" fill="white"/>
<path fill-rule="evenodd" clip-rule="evenodd" d="M12.3184 0.927246C13.3224 0.927246 14.1439 1.74873 14.1439 2.75275V11.2911C14.1439 12.2951 13.3224 13.1166 12.3184 13.1166C11.3144 13.1166 10.4929 12.2951 10.4929 11.2911V2.75275C10.4929 1.74873 11.3144 0.927246 12.3184 0.927246Z" fill="white"/>
<path fill-rule="evenodd" clip-rule="evenodd" d="M12.3184 0.927246C13.3224 0.927246 14.1439 1.74873 14.1439 2.75275V11.2911C14.1439 12.2951 13.3224 13.1166 12.3184 13.1166C12.221 13.1166 12.1253 13.1087 12.0319 13.0938C12.901 12.9553 13.5708 12.1977 13.5708 11.2911V2.75275C13.5708 1.84614 12.901 1.08854 12.0319 0.94998C12.1252 0.935074 12.221 0.927246 12.3184 0.927246Z" fill="white"/>
<path fill-rule="evenodd" clip-rule="evenodd" d="M22.0923 0.421875C22.7967 0.421875 23.3678 0.992953 23.3678 1.69739C23.3678 2.40183 22.7967 2.97291 22.0923 2.97291C21.3878 2.97291 20.8168 2.40183 20.8168 1.69739C20.8168 0.992953 21.3878 0.421875 22.0923 0.421875ZM2.54436 0.421875C3.2488 0.421875 3.81988 0.992953 3.81988 1.69739C3.81988 2.40183 3.2488 2.97291 2.54436 2.97291C1.83992 2.97291 1.2688 2.40183 1.2688 1.69739C1.26885 0.992953 1.83992 0.421875 2.54436 0.421875Z" fill="white"/>
<path fill-rule="evenodd" clip-rule="evenodd" d="M22.6162 0.53418C23.0593 0.734055 23.3678 1.17974 23.3678 1.69748C23.3678 2.40191 22.7968 2.97299 22.0923 2.97299C21.7296 2.97299 21.4023 2.82163 21.1701 2.57863C21.3299 2.65073 21.5073 2.69085 21.694 2.69085C22.3985 2.69085 22.9695 2.11977 22.9695 1.41534C22.9695 1.07357 22.8351 0.763164 22.6162 0.53418ZM3.06829 0.53418C3.51144 0.734055 3.81993 1.17974 3.81993 1.69748C3.81993 2.40191 3.24885 2.97299 2.54441 2.97299C2.18174 2.97299 1.85441 2.82163 1.62219 2.57863C1.78204 2.65073 1.95941 2.69085 2.14611 2.69085C2.85055 2.69085 3.42163 2.11977 3.42163 1.41534C3.42163 1.07357 3.28719 0.763211 3.06829 0.53418Z" fill="white"/>
<path fill-rule="evenodd" clip-rule="evenodd" d="M1.92913 6.90869H22.7075C23.0706 6.90869 23.3678 7.20583 23.3678 7.56902V11.6138C23.3678 11.977 23.0706 12.2741 22.7075 12.2741H1.92913C1.56594 12.2741 1.2688 11.977 1.2688 11.6138V7.56902C1.2688 7.20579 1.56594 6.90869 1.92913 6.90869Z" fill="white"/>
<path fill-rule="evenodd" clip-rule="evenodd" d="M23.3678 10.8779V11.6134C23.3678 11.9765 23.0706 12.2737 22.7075 12.2737H1.92913C1.56594 12.2737 1.2688 11.9765 1.2688 11.6134V10.8779C1.2688 11.2411 1.56594 11.5383 1.92913 11.5383H22.7075C23.0706 11.5383 23.3678 11.2411 23.3678 10.8779Z" fill="white"/>
<path fill-rule="evenodd" clip-rule="evenodd" d="M8.25196 3.49658H16.3848C19.0308 3.49658 21.1957 5.66146 21.1957 8.3075V10.875C21.1957 13.521 19.0308 15.6859 16.3848 15.6859H8.25196C5.60596 15.6859 3.44104 13.521 3.44104 10.875V8.3075C3.44109 5.66146 5.60596 3.49658 8.25196 3.49658Z" fill="white"/>
<path fill-rule="evenodd" clip-rule="evenodd" d="M19.2816 4.47314C20.4424 5.35355 21.1957 6.74672 21.1957 8.30738V10.8749C21.1957 13.5209 19.0308 15.6858 16.3848 15.6858H8.25196C6.69126 15.6858 5.29813 14.9325 4.41772 13.7716C5.22496 14.3838 6.22916 14.7483 7.31446 14.7483H15.4473C18.0933 14.7483 20.2582 12.5834 20.2582 9.93736V7.36988C20.2582 6.28458 19.8938 5.28038 19.2816 4.47314Z" fill="white"/>
<path fill-rule="evenodd" clip-rule="evenodd" d="M15.6605 12.4786C15.6605 13.0292 15.2101 13.4797 14.6595 13.4797H9.97714C9.42654 13.4797 8.97607 13.0292 8.97607 12.4786C8.97607 11.928 9.42654 11.4775 9.97714 11.4775H14.6595C15.21 11.4775 15.6605 11.9281 15.6605 12.4786Z" fill="white"/>
<path fill-rule="evenodd" clip-rule="evenodd" d="M9.54401 13.3805C9.20876 13.2183 8.97607 12.8743 8.97607 12.4786C8.97607 11.928 9.42654 11.4775 9.97714 11.4775H14.6595C15.0552 11.4775 15.3992 11.7102 15.5614 12.0455C15.4301 11.982 15.2831 11.9463 15.1282 11.9463H10.4459C9.89529 11.9463 9.44482 12.3968 9.44482 12.9474C9.44482 13.1023 9.4805 13.2493 9.54401 13.3805Z" fill="white"/>
<path fill-rule="evenodd" clip-rule="evenodd" d="M16.579 6.26416C17.5193 6.26416 18.2815 7.02635 18.2815 7.96661C18.2815 8.90683 17.5193 9.66907 16.579 9.66907C15.6388 9.66907 14.8766 8.90683 14.8766 7.96661C14.8766 7.02635 15.6388 6.26416 16.579 6.26416ZM8.05768 6.26416C8.99794 6.26416 9.76013 7.02635 9.76013 7.96661C9.76013 8.90683 8.9979 9.66907 8.05768 9.66907C7.11746 9.66907 6.35522 8.90683 6.35522 7.96661C6.35522 7.02635 7.11741 6.26416 8.05768 6.26416Z" fill="white"/>
<path fill-rule="evenodd" clip-rule="evenodd" d="M16.579 6.26416C17.169 6.26416 17.6888 6.5643 17.9942 7.02011C17.7236 6.83875 17.398 6.73291 17.0478 6.73291C16.1075 6.73291 15.3453 7.4951 15.3453 8.43536C15.3453 8.78561 15.4512 9.11116 15.6325 9.38182C15.1767 9.07633 14.8766 8.55654 14.8766 7.96661C14.8766 7.02635 15.6388 6.26416 16.579 6.26416ZM8.05768 6.26416C8.64765 6.26416 9.16749 6.5643 9.47293 7.02016C9.20227 6.8388 8.87672 6.73291 8.52643 6.73291C7.58621 6.73291 6.82397 7.4951 6.82397 8.43536C6.82397 8.78566 6.92982 9.11116 7.11118 9.38182C6.65532 9.07633 6.35522 8.55654 6.35522 7.96661C6.35522 7.02635 7.11741 6.26416 8.05768 6.26416Z" fill="white"/>
<path fill-rule="evenodd" clip-rule="evenodd" d="M10.032 23.5781H1.30045C0.93239 23.5781 0.632202 23.2779 0.632202 22.9099V17.4386C0.632202 17.0706 0.93239 16.7704 1.30045 16.7704H6.26587L9.09525 14.7388V16.7704H10.032C10.4 16.7704 10.7002 17.0706 10.7002 17.4386V22.9099C10.7002 23.2779 10.4001 23.5781 10.032 23.5781Z" fill="white"/>
<path fill-rule="evenodd" clip-rule="evenodd" d="M10.032 23.5782H1.30041C0.942 23.5782 0.648 23.2936 0.632812 22.9388C0.635906 22.9388 0.639047 22.9389 0.642141 22.9389H9.37364C9.7417 22.9389 10.0419 22.6387 10.0419 22.2706V16.7994C10.0419 16.7897 10.0416 16.7801 10.0412 16.7706C10.405 16.7756 10.7002 17.0738 10.7002 17.4387V22.91C10.7002 23.278 10.4 23.5782 10.032 23.5782ZM8.43698 15.2114L9.09525 14.7388V16.7704H8.43698V15.2114Z" fill="white"/>
<path fill-rule="evenodd" clip-rule="evenodd" d="M8.43956 19.0024C8.64665 19.0024 8.81456 19.1703 8.81456 19.3774C8.81456 19.5845 8.64665 19.7524 8.43956 19.7524H2.35706C2.14996 19.7524 1.98206 19.5845 1.98206 19.3774C1.98206 19.1703 2.14996 19.0024 2.35706 19.0024H8.43956ZM8.43956 21.5334C8.64665 21.5334 8.81456 21.7013 8.81456 21.9084C8.81456 22.1155 8.64665 22.2834 8.43956 22.2834H2.35706C2.14996 22.2834 1.98206 22.1155 1.98206 21.9084C1.98206 21.7013 2.14996 21.5334 2.35706 21.5334H8.43956Z" fill="white"/>
<mask id="path-18-outside-1_1492_1210" maskUnits="userSpaceOnUse" x="-0.742798" y="-0.953125" width="25" height="26" fill="black">
<rect fill="white" x="-0.742798" y="-0.953125" width="25" height="26"/>
<path fill-rule="evenodd" clip-rule="evenodd" d="M9.08241 18.909C9.08241 19.1161 8.91464 19.2839 8.7075 19.2839H2.62486C2.41795 19.2839 2.24995 19.1161 2.24995 18.909C2.24995 18.7018 2.41795 18.5338 2.62486 18.5338H8.7075C8.91464 18.5338 9.08241 18.7018 9.08241 18.909ZM9.08241 21.4395C9.08241 21.6469 8.91464 21.8147 8.7075 21.8147H2.62486C2.41795 21.8147 2.24995 21.6469 2.24995 21.4395C2.24995 21.2324 2.41795 21.0646 2.62486 21.0646H8.7075C8.91464 21.0646 9.08241 21.2324 9.08241 21.4395ZM14.6597 13.1048H9.9772C9.63192 13.1048 9.35095 12.8236 9.35095 12.4785C9.35095 12.133 9.63192 11.8523 9.9772 11.8523H14.6597C15.0046 11.8523 15.2855 12.133 15.2855 12.4785C15.2856 12.8236 15.0046 13.1048 14.6597 13.1048ZM14.6597 11.1023H9.9772C9.21834 11.1023 8.60119 11.7197 8.60119 12.4786C8.60119 13.2375 9.21834 13.8548 9.9772 13.8548H14.6597C15.4182 13.8548 16.0356 13.2375 16.0356 12.4786C16.0356 11.7197 15.4182 11.1023 14.6597 11.1023ZM16.5791 9.29391C15.847 9.29391 15.2517 8.69859 15.2517 7.96627C15.2517 7.23459 15.847 6.63886 16.5791 6.63886C17.311 6.63886 17.9063 7.23459 17.9063 7.96627C17.9063 8.69859 17.311 9.29391 16.5791 9.29391ZM16.5791 5.88886C15.4336 5.88886 14.5017 6.82125 14.5017 7.96631C14.5017 9.11203 15.4336 10.044 16.5791 10.044C17.7244 10.044 18.6563 9.11198 18.6563 7.96631C18.6563 6.82125 17.7244 5.88886 16.5791 5.88886ZM8.05762 9.29391C7.32572 9.29391 6.73022 8.69859 6.73022 7.96627C6.73022 7.23459 7.32572 6.63886 8.05762 6.63886C8.78953 6.63886 9.38503 7.23459 9.38503 7.96627C9.38503 8.69859 8.78953 9.29391 8.05762 9.29391ZM10.1351 7.96627C10.1351 6.8212 9.20311 5.88881 8.05762 5.88881C6.91214 5.88881 5.98022 6.8212 5.98022 7.96627C5.98022 9.11198 6.91219 10.0439 8.05762 10.0439C9.20311 10.0439 10.1351 9.11198 10.1351 7.96627ZM22.9927 11.6136C22.9927 11.7708 22.8647 11.8987 22.7077 11.8987H21.4688C21.5353 11.5678 21.5704 11.2252 21.5704 10.875V8.30756C21.5704 7.95698 21.5353 7.6148 21.4688 7.28344H22.7077C22.8647 7.28344 22.9927 7.41141 22.9927 7.56881V11.6136ZM20.8204 10.8751V8.30761C20.8204 5.86125 18.8305 3.87136 16.3846 3.87136H8.25192C5.80598 3.87136 3.81609 5.86125 3.81609 8.30761V10.8751C3.81609 13.0953 5.5133 15.0019 7.70437 15.2755L8.87662 14.4342C8.9909 14.3522 9.14123 14.3409 9.26658 14.4051C9.39169 14.4694 9.47039 14.5983 9.47039 14.7389V15.3107H16.3846C18.8305 15.3107 20.8204 13.321 20.8204 10.8751ZM10.032 17.1454H9.09548C8.88811 17.1454 8.72034 16.9777 8.72034 16.7705V15.4696L6.48464 17.0752C6.42098 17.1207 6.34448 17.1455 6.26601 17.1455H1.30055C1.13873 17.1455 1.0072 17.2768 1.0072 17.4383V22.9095C1.0072 23.0714 1.13873 23.2031 1.30055 23.2031H10.032C10.1936 23.2031 10.3252 23.0714 10.3252 22.9095V17.4383C10.3252 17.2767 10.1936 17.1454 10.032 17.1454ZM1.92923 11.8987C1.77183 11.8987 1.64386 11.7707 1.64386 11.6136V7.56881C1.64386 7.41141 1.77187 7.28344 1.92923 7.28344H3.16776C3.1012 7.6148 3.06609 7.95698 3.06609 8.30756V10.875C3.06609 11.2214 3.10101 11.5641 3.16889 11.8987H1.92923ZM10.8678 2.75259C10.8678 1.95281 11.5186 1.30228 12.3184 1.30228C13.1181 1.30228 13.7691 1.95281 13.7691 2.75259V3.12131H10.8678V2.75259ZM14.9672 18.5663H13.4194C13.0741 18.5663 12.7932 18.2854 12.7932 17.9406C12.7932 17.595 13.0741 17.3143 13.4194 17.3143H14.9672C15.3127 17.3143 15.5935 17.595 15.5935 17.9406C15.5935 18.2854 15.3127 18.5663 14.9672 18.5663ZM1.64381 1.69725C1.64381 1.20075 2.04787 0.796922 2.54437 0.796922C3.04106 0.796922 3.44494 1.2008 3.44494 1.69725C3.44494 2.19417 3.04106 2.59781 2.54437 2.59781C2.04792 2.59781 1.64381 2.19422 1.64381 1.69725ZM21.1916 1.69725C21.1916 1.20075 21.5959 0.796922 22.0921 0.796922C22.5891 0.796922 22.9927 1.2008 22.9927 1.69725C22.9927 2.19417 22.5891 2.59781 22.0921 2.59781C21.5959 2.59781 21.1916 2.19422 21.1916 1.69725ZM22.7077 6.53344H22.4672V3.30478C23.1969 3.13411 23.7427 2.4787 23.7427 1.6973C23.7427 0.787406 23.0024 0.046875 22.0921 0.046875C21.1823 0.046875 20.4418 0.787406 20.4418 1.69725C20.4418 2.47866 20.9873 3.13406 21.7172 3.30473V6.53339H21.2579C20.5318 4.54505 18.6217 3.12127 16.3846 3.12127H14.5192V2.75255C14.5192 1.53942 13.5317 0.552187 12.3184 0.552187C11.105 0.552187 10.1178 1.53937 10.1178 2.75255V3.12127H8.25197C6.01514 3.12127 4.10484 4.54505 3.37866 6.53339H2.91933V3.30478C3.64922 3.13411 4.19503 2.4787 4.19503 1.6973C4.19498 0.787406 3.45445 0.046875 2.54442 0.046875C1.63439 0.046875 0.893812 0.787406 0.893812 1.69725C0.893812 2.47866 1.43939 3.13406 2.16951 3.30473V6.53339H1.92923C1.35825 6.53339 0.893812 6.99783 0.893812 7.56876V11.6136C0.893812 12.1845 1.35825 12.6487 1.92923 12.6487H3.38044C3.61186 13.2801 3.96666 13.8665 4.43217 14.3743C5.09798 15.0997 5.94351 15.6155 6.87234 15.8732L6.14508 16.3953H1.30055C0.725155 16.3953 0.257202 16.8633 0.257202 17.4382V22.9095C0.257202 23.4853 0.725155 23.953 1.30055 23.953H10.032C10.6072 23.953 11.0752 23.4853 11.0752 22.9095V17.4383C11.0752 16.8633 10.6072 16.3954 10.032 16.3954H9.47034V16.0607H16.3846C18.6217 16.0607 20.5317 14.6371 21.2579 12.6488H21.7172V14.3296C21.7172 16.1137 20.266 17.5654 18.4815 17.5654H16.2909C16.1273 16.9884 15.5963 16.5642 14.9672 16.5642H13.4194C12.6606 16.5642 12.0434 17.1816 12.0434 17.9405C12.0434 18.6993 12.6605 19.3163 13.4194 19.3163H14.9672C15.5963 19.3163 16.1273 18.8923 16.2909 18.3154H18.4815C20.6794 18.3154 22.4673 16.5271 22.4673 14.3296V12.6487H22.7078C23.2785 12.6487 23.7427 12.1845 23.7427 11.6136V7.56876C23.7427 6.99783 23.2785 6.53344 22.7077 6.53344Z"/>
</mask>
<path fill-rule="evenodd" clip-rule="evenodd" d="M9.08241 18.909C9.08241 19.1161 8.91464 19.2839 8.7075 19.2839H2.62486C2.41795 19.2839 2.24995 19.1161 2.24995 18.909C2.24995 18.7018 2.41795 18.5338 2.62486 18.5338H8.7075C8.91464 18.5338 9.08241 18.7018 9.08241 18.909ZM9.08241 21.4395C9.08241 21.6469 8.91464 21.8147 8.7075 21.8147H2.62486C2.41795 21.8147 2.24995 21.6469 2.24995 21.4395C2.24995 21.2324 2.41795 21.0646 2.62486 21.0646H8.7075C8.91464 21.0646 9.08241 21.2324 9.08241 21.4395ZM14.6597 13.1048H9.9772C9.63192 13.1048 9.35095 12.8236 9.35095 12.4785C9.35095 12.133 9.63192 11.8523 9.9772 11.8523H14.6597C15.0046 11.8523 15.2855 12.133 15.2855 12.4785C15.2856 12.8236 15.0046 13.1048 14.6597 13.1048ZM14.6597 11.1023H9.9772C9.21834 11.1023 8.60119 11.7197 8.60119 12.4786C8.60119 13.2375 9.21834 13.8548 9.9772 13.8548H14.6597C15.4182 13.8548 16.0356 13.2375 16.0356 12.4786C16.0356 11.7197 15.4182 11.1023 14.6597 11.1023ZM16.5791 9.29391C15.847 9.29391 15.2517 8.69859 15.2517 7.96627C15.2517 7.23459 15.847 6.63886 16.5791 6.63886C17.311 6.63886 17.9063 7.23459 17.9063 7.96627C17.9063 8.69859 17.311 9.29391 16.5791 9.29391ZM16.5791 5.88886C15.4336 5.88886 14.5017 6.82125 14.5017 7.96631C14.5017 9.11203 15.4336 10.044 16.5791 10.044C17.7244 10.044 18.6563 9.11198 18.6563 7.96631C18.6563 6.82125 17.7244 5.88886 16.5791 5.88886ZM8.05762 9.29391C7.32572 9.29391 6.73022 8.69859 6.73022 7.96627C6.73022 7.23459 7.32572 6.63886 8.05762 6.63886C8.78953 6.63886 9.38503 7.23459 9.38503 7.96627C9.38503 8.69859 8.78953 9.29391 8.05762 9.29391ZM10.1351 7.96627C10.1351 6.8212 9.20311 5.88881 8.05762 5.88881C6.91214 5.88881 5.98022 6.8212 5.98022 7.96627C5.98022 9.11198 6.91219 10.0439 8.05762 10.0439C9.20311 10.0439 10.1351 9.11198 10.1351 7.96627ZM22.9927 11.6136C22.9927 11.7708 22.8647 11.8987 22.7077 11.8987H21.4688C21.5353 11.5678 21.5704 11.2252 21.5704 10.875V8.30756C21.5704 7.95698 21.5353 7.6148 21.4688 7.28344H22.7077C22.8647 7.28344 22.9927 7.41141 22.9927 7.56881V11.6136ZM20.8204 10.8751V8.30761C20.8204 5.86125 18.8305 3.87136 16.3846 3.87136H8.25192C5.80598 3.87136 3.81609 5.86125 3.81609 8.30761V10.8751C3.81609 13.0953 5.5133 15.0019 7.70437 15.2755L8.87662 14.4342C8.9909 14.3522 9.14123 14.3409 9.26658 14.4051C9.39169 14.4694 9.47039 14.5983 9.47039 14.7389V15.3107H16.3846C18.8305 15.3107 20.8204 13.321 20.8204 10.8751ZM10.032 17.1454H9.09548C8.88811 17.1454 8.72034 16.9777 8.72034 16.7705V15.4696L6.48464 17.0752C6.42098 17.1207 6.34448 17.1455 6.26601 17.1455H1.30055C1.13873 17.1455 1.0072 17.2768 1.0072 17.4383V22.9095C1.0072 23.0714 1.13873 23.2031 1.30055 23.2031H10.032C10.1936 23.2031 10.3252 23.0714 10.3252 22.9095V17.4383C10.3252 17.2767 10.1936 17.1454 10.032 17.1454ZM1.92923 11.8987C1.77183 11.8987 1.64386 11.7707 1.64386 11.6136V7.56881C1.64386 7.41141 1.77187 7.28344 1.92923 7.28344H3.16776C3.1012 7.6148 3.06609 7.95698 3.06609 8.30756V10.875C3.06609 11.2214 3.10101 11.5641 3.16889 11.8987H1.92923ZM10.8678 2.75259C10.8678 1.95281 11.5186 1.30228 12.3184 1.30228C13.1181 1.30228 13.7691 1.95281 13.7691 2.75259V3.12131H10.8678V2.75259ZM14.9672 18.5663H13.4194C13.0741 18.5663 12.7932 18.2854 12.7932 17.9406C12.7932 17.595 13.0741 17.3143 13.4194 17.3143H14.9672C15.3127 17.3143 15.5935 17.595 15.5935 17.9406C15.5935 18.2854 15.3127 18.5663 14.9672 18.5663ZM1.64381 1.69725C1.64381 1.20075 2.04787 0.796922 2.54437 0.796922C3.04106 0.796922 3.44494 1.2008 3.44494 1.69725C3.44494 2.19417 3.04106 2.59781 2.54437 2.59781C2.04792 2.59781 1.64381 2.19422 1.64381 1.69725ZM21.1916 1.69725C21.1916 1.20075 21.5959 0.796922 22.0921 0.796922C22.5891 0.796922 22.9927 1.2008 22.9927 1.69725C22.9927 2.19417 22.5891 2.59781 22.0921 2.59781C21.5959 2.59781 21.1916 2.19422 21.1916 1.69725ZM22.7077 6.53344H22.4672V3.30478C23.1969 3.13411 23.7427 2.4787 23.7427 1.6973C23.7427 0.787406 23.0024 0.046875 22.0921 0.046875C21.1823 0.046875 20.4418 0.787406 20.4418 1.69725C20.4418 2.47866 20.9873 3.13406 21.7172 3.30473V6.53339H21.2579C20.5318 4.54505 18.6217 3.12127 16.3846 3.12127H14.5192V2.75255C14.5192 1.53942 13.5317 0.552187 12.3184 0.552187C11.105 0.552187 10.1178 1.53937 10.1178 2.75255V3.12127H8.25197C6.01514 3.12127 4.10484 4.54505 3.37866 6.53339H2.91933V3.30478C3.64922 3.13411 4.19503 2.4787 4.19503 1.6973C4.19498 0.787406 3.45445 0.046875 2.54442 0.046875C1.63439 0.046875 0.893812 0.787406 0.893812 1.69725C0.893812 2.47866 1.43939 3.13406 2.16951 3.30473V6.53339H1.92923C1.35825 6.53339 0.893812 6.99783 0.893812 7.56876V11.6136C0.893812 12.1845 1.35825 12.6487 1.92923 12.6487H3.38044C3.61186 13.2801 3.96666 13.8665 4.43217 14.3743C5.09798 15.0997 5.94351 15.6155 6.87234 15.8732L6.14508 16.3953H1.30055C0.725155 16.3953 0.257202 16.8633 0.257202 17.4382V22.9095C0.257202 23.4853 0.725155 23.953 1.30055 23.953H10.032C10.6072 23.953 11.0752 23.4853 11.0752 22.9095V17.4383C11.0752 16.8633 10.6072 16.3954 10.032 16.3954H9.47034V16.0607H16.3846C18.6217 16.0607 20.5317 14.6371 21.2579 12.6488H21.7172V14.3296C21.7172 16.1137 20.266 17.5654 18.4815 17.5654H16.2909C16.1273 16.9884 15.5963 16.5642 14.9672 16.5642H13.4194C12.6606 16.5642 12.0434 17.1816 12.0434 17.9405C12.0434 18.6993 12.6605 19.3163 13.4194 19.3163H14.9672C15.5963 19.3163 16.1273 18.8923 16.2909 18.3154H18.4815C20.6794 18.3154 22.4673 16.5271 22.4673 14.3296V12.6487H22.7078C23.2785 12.6487 23.7427 12.1845 23.7427 11.6136V7.56876C23.7427 6.99783 23.2785 6.53344 22.7077 6.53344Z" fill="#3C9D8D"/>
<path fill-rule="evenodd" clip-rule="evenodd" d="M9.08241 18.909C9.08241 19.1161 8.91464 19.2839 8.7075 19.2839H2.62486C2.41795 19.2839 2.24995 19.1161 2.24995 18.909C2.24995 18.7018 2.41795 18.5338 2.62486 18.5338H8.7075C8.91464 18.5338 9.08241 18.7018 9.08241 18.909ZM9.08241 21.4395C9.08241 21.6469 8.91464 21.8147 8.7075 21.8147H2.62486C2.41795 21.8147 2.24995 21.6469 2.24995 21.4395C2.24995 21.2324 2.41795 21.0646 2.62486 21.0646H8.7075C8.91464 21.0646 9.08241 21.2324 9.08241 21.4395ZM14.6597 13.1048H9.9772C9.63192 13.1048 9.35095 12.8236 9.35095 12.4785C9.35095 12.133 9.63192 11.8523 9.9772 11.8523H14.6597C15.0046 11.8523 15.2855 12.133 15.2855 12.4785C15.2856 12.8236 15.0046 13.1048 14.6597 13.1048ZM14.6597 11.1023H9.9772C9.21834 11.1023 8.60119 11.7197 8.60119 12.4786C8.60119 13.2375 9.21834 13.8548 9.9772 13.8548H14.6597C15.4182 13.8548 16.0356 13.2375 16.0356 12.4786C16.0356 11.7197 15.4182 11.1023 14.6597 11.1023ZM16.5791 9.29391C15.847 9.29391 15.2517 8.69859 15.2517 7.96627C15.2517 7.23459 15.847 6.63886 16.5791 6.63886C17.311 6.63886 17.9063 7.23459 17.9063 7.96627C17.9063 8.69859 17.311 9.29391 16.5791 9.29391ZM16.5791 5.88886C15.4336 5.88886 14.5017 6.82125 14.5017 7.96631C14.5017 9.11203 15.4336 10.044 16.5791 10.044C17.7244 10.044 18.6563 9.11198 18.6563 7.96631C18.6563 6.82125 17.7244 5.88886 16.5791 5.88886ZM8.05762 9.29391C7.32572 9.29391 6.73022 8.69859 6.73022 7.96627C6.73022 7.23459 7.32572 6.63886 8.05762 6.63886C8.78953 6.63886 9.38503 7.23459 9.38503 7.96627C9.38503 8.69859 8.78953 9.29391 8.05762 9.29391ZM10.1351 7.96627C10.1351 6.8212 9.20311 5.88881 8.05762 5.88881C6.91214 5.88881 5.98022 6.8212 5.98022 7.96627C5.98022 9.11198 6.91219 10.0439 8.05762 10.0439C9.20311 10.0439 10.1351 9.11198 10.1351 7.96627ZM22.9927 11.6136C22.9927 11.7708 22.8647 11.8987 22.7077 11.8987H21.4688C21.5353 11.5678 21.5704 11.2252 21.5704 10.875V8.30756C21.5704 7.95698 21.5353 7.6148 21.4688 7.28344H22.7077C22.8647 7.28344 22.9927 7.41141 22.9927 7.56881V11.6136ZM20.8204 10.8751V8.30761C20.8204 5.86125 18.8305 3.87136 16.3846 3.87136H8.25192C5.80598 3.87136 3.81609 5.86125 3.81609 8.30761V10.8751C3.81609 13.0953 5.5133 15.0019 7.70437 15.2755L8.87662 14.4342C8.9909 14.3522 9.14123 14.3409 9.26658 14.4051C9.39169 14.4694 9.47039 14.5983 9.47039 14.7389V15.3107H16.3846C18.8305 15.3107 20.8204 13.321 20.8204 10.8751ZM10.032 17.1454H9.09548C8.88811 17.1454 8.72034 16.9777 8.72034 16.7705V15.4696L6.48464 17.0752C6.42098 17.1207 6.34448 17.1455 6.26601 17.1455H1.30055C1.13873 17.1455 1.0072 17.2768 1.0072 17.4383V22.9095C1.0072 23.0714 1.13873 23.2031 1.30055 23.2031H10.032C10.1936 23.2031 10.3252 23.0714 10.3252 22.9095V17.4383C10.3252 17.2767 10.1936 17.1454 10.032 17.1454ZM1.92923 11.8987C1.77183 11.8987 1.64386 11.7707 1.64386 11.6136V7.56881C1.64386 7.41141 1.77187 7.28344 1.92923 7.28344H3.16776C3.1012 7.6148 3.06609 7.95698 3.06609 8.30756V10.875C3.06609 11.2214 3.10101 11.5641 3.16889 11.8987H1.92923ZM10.8678 2.75259C10.8678 1.95281 11.5186 1.30228 12.3184 1.30228C13.1181 1.30228 13.7691 1.95281 13.7691 2.75259V3.12131H10.8678V2.75259ZM14.9672 18.5663H13.4194C13.0741 18.5663 12.7932 18.2854 12.7932 17.9406C12.7932 17.595 13.0741 17.3143 13.4194 17.3143H14.9672C15.3127 17.3143 15.5935 17.595 15.5935 17.9406C15.5935 18.2854 15.3127 18.5663 14.9672 18.5663ZM1.64381 1.69725C1.64381 1.20075 2.04787 0.796922 2.54437 0.796922C3.04106 0.796922 3.44494 1.2008 3.44494 1.69725C3.44494 2.19417 3.04106 2.59781 2.54437 2.59781C2.04792 2.59781 1.64381 2.19422 1.64381 1.69725ZM21.1916 1.69725C21.1916 1.20075 21.5959 0.796922 22.0921 0.796922C22.5891 0.796922 22.9927 1.2008 22.9927 1.69725C22.9927 2.19417 22.5891 2.59781 22.0921 2.59781C21.5959 2.59781 21.1916 2.19422 21.1916 1.69725ZM22.7077 6.53344H22.4672V3.30478C23.1969 3.13411 23.7427 2.4787 23.7427 1.6973C23.7427 0.787406 23.0024 0.046875 22.0921 0.046875C21.1823 0.046875 20.4418 0.787406 20.4418 1.69725C20.4418 2.47866 20.9873 3.13406 21.7172 3.30473V6.53339H21.2579C20.5318 4.54505 18.6217 3.12127 16.3846 3.12127H14.5192V2.75255C14.5192 1.53942 13.5317 0.552187 12.3184 0.552187C11.105 0.552187 10.1178 1.53937 10.1178 2.75255V3.12127H8.25197C6.01514 3.12127 4.10484 4.54505 3.37866 6.53339H2.91933V3.30478C3.64922 3.13411 4.19503 2.4787 4.19503 1.6973C4.19498 0.787406 3.45445 0.046875 2.54442 0.046875C1.63439 0.046875 0.893812 0.787406 0.893812 1.69725C0.893812 2.47866 1.43939 3.13406 2.16951 3.30473V6.53339H1.92923C1.35825 6.53339 0.893812 6.99783 0.893812 7.56876V11.6136C0.893812 12.1845 1.35825 12.6487 1.92923 12.6487H3.38044C3.61186 13.2801 3.96666 13.8665 4.43217 14.3743C5.09798 15.0997 5.94351 15.6155 6.87234 15.8732L6.14508 16.3953H1.30055C0.725155 16.3953 0.257202 16.8633 0.257202 17.4382V22.9095C0.257202 23.4853 0.725155 23.953 1.30055 23.953H10.032C10.6072 23.953 11.0752 23.4853 11.0752 22.9095V17.4383C11.0752 16.8633 10.6072 16.3954 10.032 16.3954H9.47034V16.0607H16.3846C18.6217 16.0607 20.5317 14.6371 21.2579 12.6488H21.7172V14.3296C21.7172 16.1137 20.266 17.5654 18.4815 17.5654H16.2909C16.1273 16.9884 15.5963 16.5642 14.9672 16.5642H13.4194C12.6606 16.5642 12.0434 17.1816 12.0434 17.9405C12.0434 18.6993 12.6605 19.3163 13.4194 19.3163H14.9672C15.5963 19.3163 16.1273 18.8923 16.2909 18.3154H18.4815C20.6794 18.3154 22.4673 16.5271 22.4673 14.3296V12.6487H22.7078C23.2785 12.6487 23.7427 12.1845 23.7427 11.6136V7.56876C23.7427 6.99783 23.2785 6.53344 22.7077 6.53344Z" stroke="#3C9D8D" stroke-width="0.4" mask="url(#path-18-outside-1_1492_1210)"/>
</g>
<defs>
<clipPath id="clip0_1492_1210">
<rect width="24" height="24" fill="white"/>
</clipPath>
</defs>
</svg>
