<svg width="18" height="16" viewBox="0 0 18 16" fill="none" xmlns="http://www.w3.org/2000/svg">
<path d="M18 16H0V0H18V16Z" stroke="#E5E7EB"/>
<path d="M3.5 3C2.67188 3 2 3.67188 2 4.5V8H5V4.5C5 3.67188 4.32812 3 3.5 3ZM0 4.5C0 2.56562 1.56562 1 3.5 1C5.43437 1 7 2.56562 7 4.5V11.5C7 13.4344 5.43437 15 3.5 15C1.56562 15 0 13.4344 0 11.5V4.5ZM17.3406 12.4812C17.1188 12.8656 16.6 12.8906 16.2844 12.5781L10.4219 6.71562C10.1094 6.40312 10.1313 5.88125 10.5188 5.65938C11.25 5.24063 12.0969 5 13 5C15.7625 5 18 7.2375 18 10C18 10.9031 17.7594 11.75 17.3406 12.4812ZM15.4812 14.3406C14.75 14.7594 13.9031 15 13 15C10.2375 15 8 12.7625 8 10C8 9.09688 8.24063 8.25 8.65938 7.51875C8.88125 7.13438 9.4 7.10938 9.71562 7.42188L15.5781 13.2844C15.8906 13.5969 15.8687 14.1187 15.4812 14.3406Z" fill="black" fill-opacity="0.6"/>
</svg>
