<svg width="23" height="24" viewBox="0 0 23 24" fill="none" xmlns="http://www.w3.org/2000/svg">
<g clip-path="url(#clip0_605_2258)">
<path d="M19.8105 3.14634L20.3541 3.68989C20.7764 4.11216 20.7764 4.79497 20.3541 5.21274L19.0469 6.52446L16.976 4.45356L18.2832 3.14634C18.7055 2.72407 19.3883 2.72407 19.8061 3.14634H19.8105ZM9.42461 12.0094L15.4531 5.97642L17.524 8.04731L11.491 14.0758C11.3607 14.2061 11.199 14.3004 11.0238 14.3499L8.3959 15.1L9.14609 12.4721C9.19551 12.2969 9.28984 12.1352 9.42012 12.0049L9.42461 12.0094ZM16.7604 1.62349L7.89727 10.4821C7.50645 10.8729 7.22344 11.3536 7.0752 11.8792L5.79043 16.3713C5.68262 16.7487 5.78594 17.153 6.06445 17.4315C6.34297 17.71 6.74727 17.8133 7.12461 17.7055L11.6168 16.4208C12.1469 16.268 12.6275 15.985 13.0139 15.5987L21.877 6.74009C23.1393 5.47778 23.1393 3.42935 21.877 2.16704L21.3334 1.62349C20.0711 0.361182 18.0227 0.361182 16.7604 1.62349ZM3.95312 3.37544C1.76992 3.37544 0 5.14536 0 7.32856V19.5473C0 21.7305 1.76992 23.5004 3.95312 23.5004H16.1719C18.3551 23.5004 20.125 21.7305 20.125 19.5473V14.5161C20.125 13.9186 19.6443 13.4379 19.0469 13.4379C18.4494 13.4379 17.9688 13.9186 17.9688 14.5161V19.5473C17.9688 20.5401 17.1646 21.3442 16.1719 21.3442H3.95312C2.96035 21.3442 2.15625 20.5401 2.15625 19.5473V7.32856C2.15625 6.33579 2.96035 5.53169 3.95312 5.53169H8.98438C9.58184 5.53169 10.0625 5.05103 10.0625 4.45356C10.0625 3.8561 9.58184 3.37544 8.98438 3.37544H3.95312Z" fill="#313144"/>
</g>
<defs>
<clipPath id="clip0_605_2258">
<path d="M0 0.5H23V23.5H0V0.5Z" fill="white"/>
</clipPath>
</defs>
</svg>
