<svg width="20" height="18" viewBox="0 0 20 18" fill="none" xmlns="http://www.w3.org/2000/svg">
<path d="M10.4688 3.45166C12.5522 1.28685 14.7619 1.07678 16.417 1.8335C18.1132 2.60915 19.3496 4.45037 19.3496 6.63818C19.3495 8.86618 18.4368 10.5825 17.1367 12.0464C15.8144 13.5353 14.1456 14.7097 12.6357 15.8989L12.6348 15.8999C12.1102 16.3143 11.6358 16.6834 11.1768 16.9517C10.7175 17.22 10.335 17.3501 10 17.3501C9.66507 17.3501 9.28275 17.2192 8.82324 16.9507C8.36398 16.6823 7.88927 16.3136 7.36426 15.8999H7.36328C5.85389 14.7097 4.18563 13.5343 2.86328 12.0454C1.56325 10.5815 0.650476 8.86541 0.650391 6.63721C0.650391 4.44887 1.88692 2.60779 3.58301 1.83252C5.23801 1.07622 7.44779 1.28683 9.53125 3.45166L10 3.93799L10.4688 3.45166Z" stroke="#3C9D8D" stroke-width="1.3"/>
</svg>
