<svg width="24" height="25" viewBox="0 0 24 25" fill="none" xmlns="http://www.w3.org/2000/svg">
<path d="M0.498291 21.5191V9.08706C0.498291 8.64964 0.6021 8.23524 0.809717 7.84386C1.01734 7.45249 1.30342 7.13017 1.66797 6.87693L10.4405 0.660932C10.9523 0.292576 11.5371 0.108398 12.1951 0.108398C12.853 0.108398 13.4378 0.292576 13.9496 0.660932L22.7222 6.87693C23.0877 7.13017 23.3743 7.45249 23.5819 7.84386C23.7895 8.23524 23.8928 8.64964 23.8918 9.08706V21.5191C23.8918 22.2788 23.6053 22.9294 23.0321 23.4709C22.459 24.0124 21.7708 24.2826 20.9676 24.2817H16.5814C16.1671 24.2817 15.8201 24.1491 15.5403 23.8839C15.2606 23.6187 15.1202 23.2909 15.1193 22.9004V15.9937C15.1193 15.6024 14.9789 15.2745 14.6982 15.0102C14.4174 14.7459 14.0704 14.6133 13.6572 14.6124H10.733C10.3187 14.6124 9.9717 14.745 9.69195 15.0102C9.41221 15.2754 9.27184 15.6033 9.27087 15.9937V22.9004C9.27087 23.2918 9.13051 23.6201 8.84979 23.8853C8.56906 24.1505 8.22206 24.2826 7.80877 24.2817H3.42248C2.61833 24.2817 1.93017 24.0114 1.358 23.4709C0.785836 22.9303 0.499266 22.2797 0.498291 21.5191Z" fill="#3C9D8D"/>
</svg>
