<svg width="12" height="16" viewBox="0 0 12 16" fill="none" xmlns="http://www.w3.org/2000/svg">
<g clip-path="url(#clip0_605_2304)">
<path d="M6.98438 1C3.125 1 0 4.13438 0 8C0 11.8656 3.125 15 6.98438 15C8.87813 15 10.5938 14.2438 11.8531 13.0188C12.0094 12.8656 12.05 12.6281 11.95 12.4344C11.85 12.2406 11.6344 12.1312 11.4187 12.1687C11.1125 12.2219 10.8 12.25 10.4781 12.25C7.45 12.25 4.99375 9.7875 4.99375 6.75C4.99375 4.69375 6.11875 2.90313 7.78438 1.95938C7.975 1.85 8.07187 1.63125 8.025 1.41875C7.97812 1.20625 7.79688 1.04688 7.57812 1.02813C7.38125 1.0125 7.18437 1.00312 6.98438 1.00312V1Z" fill="black" fill-opacity="0.6"/>
</g>
<defs>
<clipPath id="clip0_605_2304">
<path d="M0 0H12V16H0V0Z" fill="white"/>
</clipPath>
</defs>
</svg>
