<svg width="16" height="19" viewBox="0 0 16 19" fill="none" xmlns="http://www.w3.org/2000/svg">
<path d="M13.0021 6.30085C13.0021 5.02759 12.4963 3.80647 11.596 2.90614C10.6957 2.0058 9.47454 1.5 8.20128 1.5C6.92801 1.5 5.7069 2.0058 4.80656 2.90614C3.90623 3.80647 3.40043 5.02759 3.40043 6.30085C3.40043 11.9018 1 13.5021 1 13.5021H15.4026C15.4026 13.5021 13.0021 11.9018 13.0021 6.30085Z" stroke="black" stroke-opacity="0.6" stroke-width="1.2" stroke-linecap="round" stroke-linejoin="round"/>
<path d="M9.58563 16.7031C9.44496 16.9456 9.24304 17.1469 9.00011 17.2869C8.75717 17.4268 8.48174 17.5004 8.20138 17.5004C7.92103 17.5004 7.6456 17.4268 7.40266 17.2869C7.15972 17.1469 6.95781 16.9456 6.81714 16.7031" stroke="black" stroke-opacity="0.6" stroke-width="1.2" stroke-linecap="round" stroke-linejoin="round"/>
</svg>
