<svg width="175" height="128" viewBox="0 0 175 128" fill="none" xmlns="http://www.w3.org/2000/svg">
<g filter="url(#filter0_d_139_88)">
<path d="M4.02852 52.0606C11.0341 63.3585 20.6649 72.3884 30.1102 81.4045C35.6747 86.7195 41.4532 91.965 48.1448 95.6938C56.3631 100.258 68.4052 101.468 77.5367 99.6871C88.5229 97.5583 98.4819 91.5476 106.829 83.9507C111.451 79.7349 115.218 74.6425 119.47 70.0371C123.565 65.5986 128.202 60.4088 134.537 60.0192C136.006 59.9357 137.676 60.5479 138.232 61.9671C138.66 63.0663 138.332 64.3185 137.904 65.4316C136.121 70.1344 132.953 74.0859 130.142 78.2044C127.888 81.5158 125.848 84.9942 124.05 88.5979C123.608 89.4744 123.18 90.4762 123.465 91.4084C123.807 92.4937 124.992 93.0363 126.076 93.1616C127.888 93.3703 129.7 92.7998 131.369 92.0346C135.179 90.3093 138.518 87.6378 141.571 84.716C146.822 79.6931 151.359 73.8077 154.754 67.2543C157.836 61.3132 159.534 55.1216 160.733 48.5404C161.475 44.4776 163.244 36.1155 168.922 38.3835C171.748 39.5105 170.963 44.909 170.692 47.1908C169.807 54.8294 168.552 62.5237 165.883 69.731C160.604 83.9785 150.46 96.1947 138.461 104.779C128.159 112.168 116.217 117.065 103.818 118.818C73.6986 123.076 44.8918 111.931 26.5433 86.0517C18.6817 74.9764 11.2196 63.5672 4 52.0188L4.02852 52.0606Z" fill="#24828D"/>
<path d="M90.1322 23.588C89.1336 27.1023 87.4945 30.4049 85.7685 33.6229C84.0426 36.8409 82.219 40.08 80.2651 43.2133C78.5392 45.9761 76.9653 48.8024 75.3479 51.6287L74.9245 50.9194L67.1742 37.6983C64.938 33.8875 62.1158 30.0133 60.5201 25.8532C59.0547 22.0319 58.6314 17.7448 59.3261 13.7224C59.402 13.299 59.4889 12.8755 59.5866 12.4521C60.8566 7.21234 64.6667 2.41716 69.8987 0.71291C72.9923 -0.292702 76.4225 -0.19743 79.5378 0.765841C82.7726 1.75028 85.7143 3.65565 87.831 6.23849C91.9124 11.203 91.793 17.6813 90.1214 23.588H90.1322Z" fill="#E14044"/>
<path d="M75.4846 28.5525C81.7099 28.5525 86.7564 23.3013 86.7564 16.8235C86.7564 10.3457 81.7099 5.09448 75.4846 5.09448C69.2594 5.09448 64.2129 10.3457 64.2129 16.8235C64.2129 23.3013 69.2594 28.5525 75.4846 28.5525Z" fill="white"/>
<path d="M56.9422 46.8271L45.169 59.2301C40.5482 64.108 40.8532 71.7818 45.84 76.2879C50.8421 80.794 58.7112 80.4966 63.3321 75.6335L75.1053 63.2306" fill="#24828D"/>
<g opacity="0.61">
<path d="M55.6153 51.6754C49.6525 57.3713 41.2496 65.5804 45.7026 72.2281" stroke="white" stroke-width="1.45634" stroke-miterlimit="10"/>
</g>
<path d="M93.8935 46.8271L105.667 59.2301C110.288 64.108 109.983 71.7817 104.996 76.2879C99.9936 80.794 92.1245 80.4965 87.5037 75.6335L75.7305 63.2305" fill="#65CEC9"/>
<g opacity="0.62">
<path d="M95.2051 51.6754C101.168 57.3713 109.571 65.5804 105.118 72.228L95.2051 51.6754Z" fill="#65CEC9"/>
<path d="M95.2051 51.6754C101.168 57.3713 109.571 65.5804 105.118 72.228" stroke="white" stroke-width="0.728171" stroke-miterlimit="10"/>
</g>
</g>
<defs>
<filter id="filter0_d_139_88" x="0" y="0" width="175" height="127.703" filterUnits="userSpaceOnUse" color-interpolation-filters="sRGB">
<feFlood flood-opacity="0" result="BackgroundImageFix"/>
<feColorMatrix in="SourceAlpha" type="matrix" values="0 0 0 0 0 0 0 0 0 0 0 0 0 0 0 0 0 0 127 0" result="hardAlpha"/>
<feOffset dy="4"/>
<feGaussianBlur stdDeviation="2"/>
<feComposite in2="hardAlpha" operator="out"/>
<feColorMatrix type="matrix" values="0 0 0 0 0 0 0 0 0 0 0 0 0 0 0 0 0 0 0.25 0"/>
<feBlend mode="normal" in2="BackgroundImageFix" result="effect1_dropShadow_139_88"/>
<feBlend mode="normal" in="SourceGraphic" in2="effect1_dropShadow_139_88" result="shape"/>
</filter>
</defs>
</svg>
