<svg width="24" height="25" viewBox="0 0 24 25" fill="none" xmlns="http://www.w3.org/2000/svg">
<path d="M12.252 19.0055C12.8849 18.9623 13.5125 18.8612 14.127 18.7035C14.886 18.9317 15.687 18.9833 16.469 18.8545C16.5002 18.8507 16.5316 18.8484 16.563 18.8475C16.842 18.8475 17.208 19.0075 17.742 19.3445V18.7905C17.7422 18.694 17.7683 18.5993 17.8176 18.5163C17.8668 18.4333 17.9374 18.365 18.022 18.3185C18.2547 18.1872 18.4697 18.0395 18.667 17.8755C19.445 17.2255 19.884 16.3575 19.884 15.4395C19.884 15.1365 19.836 14.8345 19.741 14.5465C19.977 14.1125 20.165 13.6595 20.305 13.1875C20.755 13.8525 20.997 14.6375 21 15.4395C21 16.6875 20.412 17.8515 19.393 18.7025C19.2223 18.8445 19.044 18.9752 18.858 19.0945V20.3925C18.858 20.8385 18.336 21.0955 17.968 20.8295C17.6193 20.573 17.2589 20.3327 16.888 20.1095C16.7808 20.0477 16.67 19.9926 16.556 19.9445C16.2464 19.9904 15.9339 20.0134 15.621 20.0135C14.351 20.0135 13.177 19.6365 12.252 19.0055ZM5.531 16.4105C3.927 15.0675 3 13.2365 3 11.2745C3 7.26652 6.832 4.06152 11.511 4.06152C16.191 4.06152 20.024 7.26552 20.024 11.2745C20.024 15.2825 16.191 18.4865 11.511 18.4865C10.985 18.4865 10.4667 18.4465 9.956 18.3665C9.736 18.4175 8.854 18.9345 7.584 19.8495C7.124 20.1815 6.472 19.8615 6.472 19.3025V17.0895C6.14262 16.8859 5.82846 16.6586 5.532 16.4095M9.987 17.0015C10.0257 17.0015 10.0647 17.0045 10.104 17.0105C10.564 17.0865 11.033 17.1249 11.511 17.1255C15.464 17.1255 18.627 14.4805 18.627 11.2735C18.627 8.06752 15.464 5.42252 11.512 5.42252C7.56 5.42252 4.395 8.06952 4.395 11.2745C4.395 12.8245 5.135 14.2845 6.441 15.3775C6.77033 15.6522 7.129 15.8989 7.517 16.1175C7.62225 16.1759 7.71011 16.2612 7.7716 16.3647C7.83309 16.4682 7.86601 16.5862 7.867 16.7065V17.9825C8.872 17.3175 9.533 17.0015 9.987 17.0015Z" fill="black" fill-opacity="0.6"/>
<path d="M8.06201 12.5C8.36038 12.5 8.64653 12.3815 8.85751 12.1705C9.06849 11.9595 9.18701 11.6734 9.18701 11.375C9.18701 11.0766 9.06849 10.7905 8.85751 10.5795C8.64653 10.3685 8.36038 10.25 8.06201 10.25C7.76364 10.25 7.4775 10.3685 7.26652 10.5795C7.05554 10.7905 6.93701 11.0766 6.93701 11.375C6.93701 11.6734 7.05554 11.9595 7.26652 12.1705C7.4775 12.3815 7.76364 12.5 8.06201 12.5ZM11.719 12.5C12.0174 12.5 12.3035 12.3815 12.5145 12.1705C12.7255 11.9595 12.844 11.6734 12.844 11.375C12.844 11.0766 12.7255 10.7905 12.5145 10.5795C12.3035 10.3685 12.0174 10.25 11.719 10.25C11.4206 10.25 11.1345 10.3685 10.9235 10.5795C10.7125 10.7905 10.594 11.0766 10.594 11.375C10.594 11.6734 10.7125 11.9595 10.9235 12.1705C11.1345 12.3815 11.4206 12.5 11.719 12.5ZM15.375 12.5C15.6734 12.5 15.9595 12.3815 16.1705 12.1705C16.3815 11.9595 16.5 11.6734 16.5 11.375C16.5 11.0766 16.3815 10.7905 16.1705 10.5795C15.9595 10.3685 15.6734 10.25 15.375 10.25C15.0766 10.25 14.7905 10.3685 14.5795 10.5795C14.3685 10.7905 14.25 11.0766 14.25 11.375C14.25 11.6734 14.3685 11.9595 14.5795 12.1705C14.7905 12.3815 15.0766 12.5 15.375 12.5Z" fill="black" fill-opacity="0.6"/>
</svg>
